<svg height="64" viewBox="-3 0 360 360.90027" width="64" xmlns="http://www.w3.org/2000/svg" fill="#e01e25"><path d="m60.109375 114.644531c1.082031.628907 2.265625.929688 3.433594.929688 2.347656 0 4.632812-1.207031 5.902343-3.382813 3.691407-6.324218 8.011719-12.363281 12.824219-17.941406 2.46875-2.855469 2.148438-7.164062-.703125-9.628906-2.835937-2.457032-7.160156-2.152344-9.628906.707031-5.359375 6.207031-10.167969 12.929687-14.28125 19.976563-1.898438 3.257812-.808594 7.4375 2.453125 9.339843zm0 0"/><path d="m122.515625 229.722656c1.746094 0 3.492187-.667968 4.828125-2l50.410156-50.417968c1.28125-1.277344 2.003906-3.015626 2.003906-4.824219v-72.023438c0-3.769531-3.054687-6.828125-6.828124-6.828125-3.773438 0-6.828126 3.058594-6.828126 6.828125v69.195313l-48.410156 48.417968c-2.667968 2.664063-2.667968 6.984376 0 9.652344 1.332032 1.332032 3.078125 2 4.824219 2zm0 0"/><path d="m329.796875 244.167969c10.328125-22.550781 15.613281-46.648438 15.613281-71.6875 0-95.109375-77.375-172.480469-172.480468-172.480469-95.105469 0-172.480469 77.375-172.480469 172.480469s77.375 172.480469 172.480469 172.480469c21.636718 0 42.679687-3.988282 62.625-11.773438 11.886718 16.738281 31.382812 27.710938 53.429687 27.710938 36.136719 0 65.539063-29.398438 65.539063-65.539063 0-20.707031-9.679688-39.171875-24.726563-51.191406zm-156.867187 87.140625c-87.578126 0-158.828126-71.25-158.828126-158.828125 0-87.574219 71.25-158.824219 158.828126-158.824219 87.578124 0 158.824218 71.25 158.824218 158.824219 0 22.425781-4.613281 44.011719-13.601562 64.273437-7.609375-3.800781-16.046875-6.152344-24.976563-6.722656 6.324219-13.199219 10.496094-27.269531 12.234375-42.042969 4.140625-35.386719-5.746094-70.265625-27.839844-98.21875s-53.746093-45.625-89.132812-49.769531c-29.761719-3.476562-58.988281 2.863281-84.546875 18.34375-3.222656 1.953125-4.253906 6.152344-2.300781 9.375 1.957031 3.234375 6.160156 4.257812 9.378906 2.304688 22.925781-13.890626 49.152344-19.589844 75.878906-16.460938 31.765625 3.71875 60.183594 19.582031 80.015625 44.671875 19.832031 25.09375 28.707031 56.40625 24.988281 88.164063-1.855468 15.828124-6.792968 30.769531-14.492187 44.515624-25.597656 4.609376-46.03125 24.097657-52.050781 49.183594-20.558594 10.035156-43.410156 13.980469-66.300782 11.304688-31.765624-3.722656-60.179687-19.585938-80.011718-44.675782-19.832032-25.09375-28.707032-56.402343-24.988282-88.164062.441407-3.742188-2.238281-7.136719-5.984374-7.574219-3.75-.4375-7.136719 2.246094-7.574219 5.984375-8.554688 73.050782 43.917969 139.4375 116.972656 147.988282 5.226563.613281 10.445313.917968 15.652344.917968 17.320312-.003906 34.378906-3.417968 50.394531-9.992187.070312 8.925781 1.921875 17.4375 5.234375 25.183593-17.800781 6.691407-36.511719 10.238282-55.773437 10.238282zm116.054687 15.9375c-28.617187 0-51.886719-23.277344-51.886719-51.886719s23.273438-51.886719 51.886719-51.886719c28.609375 0 51.882813 23.277344 51.882813 51.886719s-23.269532 51.886719-51.882813 51.886719zm0 0"/><path d="m299.222656 274.878906h-14.242187l2-2c2.667969-2.664062 2.667969-6.988281 0-9.652344-2.664063-2.667968-6.984375-2.667968-9.652344 0l-13.652344 13.652344c-.59375.59375-1.011719 1.292969-1.347656 2.027344-.097656.222656-.160156.441406-.238281.667969-.183594.554687-.289063 1.117187-.328125 1.699219-.015625.234374-.042969.453124-.035157.6875.027344.726562.152344 1.449218.417969 2.152343.023438.058594.019531.125.046875.179688.003906.011719 0 .015625.003906.027343.320313.765626.796876 1.417969 1.34375 2.003907.058594.0625.074219.148437.136719.207031l13.652344 13.65625c1.335937 1.332031 3.082031 2 4.828125 2s3.492188-.667969 4.824219-2c2.667969-2.667969 2.667969-6.988281 0-9.65625l-2-2h14.242187c5.648438 0 10.238282 4.59375 10.238282 10.242188 0 5.644531-4.589844 10.238281-10.238282 10.238281h-37.546875c-3.773437 0-6.828125 3.058593-6.828125 6.828125 0 3.769531 3.054688 6.824218 6.828125 6.824218h37.546875c13.171875 0 23.894532-10.71875 23.894532-23.890624 0-13.175782-10.722657-23.894532-23.894532-23.894532zm0 0"/></svg>